<?xml version="1.0" encoding="utf-8" standalone="no"?>
<!DOCTYPE svg PUBLIC "-//W3C//DTD SVG 1.1//EN"
  "http://www.w3.org/Graphics/SVG/1.1/DTD/svg11.dtd">
<svg height="360pt" version="1.1" viewBox="0 0 421.5 360" width="421.5pt" xmlns="http://www.w3.org/2000/svg" xmlns:xlink="http://www.w3.org/1999/xlink">
 <metadata>
  <rdf:RDF xmlns:cc="http://creativecommons.org/ns#" xmlns:dc="http://purl.org/dc/elements/1.1/" xmlns:rdf="http://www.w3.org/1999/02/22-rdf-syntax-ns#">
   <cc:Work>
    <dc:type rdf:resource="http://purl.org/dc/dcmitype/StillImage"/>
    <dc:date>2022-01-12T20:20:09.940710</dc:date>
    <dc:format>image/svg+xml</dc:format>
    <dc:creator>
     <cc:Agent>
      <dc:title>Matplotlib v3.4.3, https://matplotlib.org/</dc:title>
     </cc:Agent>
    </dc:creator>
   </cc:Work>
  </rdf:RDF>
 </metadata>
 <defs>
  <style type="text/css">*{stroke-linecap:butt;stroke-linejoin:round;}</style>
 </defs>
 <g id="figure_1">
  <g id="patch_1">
   <path d="M 0 360 
L 421.5 360 
L 421.5 0 
L 0 0 
z
" style="fill:#ffffff;"/>
  </g>
  <g id="axes_1">
   <g id="patch_2">
    <path d="M 44.696563 318.2 
L 355.785 318.2 
L 355.785 10.8 
L 44.696563 10.8 
z
" style="fill:#ffffff;"/>
   </g>
   <g id="PathCollection_1">
    <defs>
     <path d="M 0 3 
C 0.795609 3 1.55874 2.683901 2.12132 2.12132 
C 2.683901 1.55874 3 0.795609 3 0 
C 3 -0.795609 2.683901 -1.55874 2.12132 -2.12132 
C 1.55874 -2.683901 0.795609 -3 0 -3 
C -0.795609 -3 -1.55874 -2.683901 -2.12132 -2.12132 
C -2.683901 -1.55874 -3 -0.795609 -3 0 
C -3 0.795609 -2.683901 1.55874 -2.12132 2.12132 
C -1.55874 2.683901 -0.795609 3 0 3 
z
" id="m9bee72e394" style="stroke:#1f77b4;stroke-opacity:0.8;"/>
    </defs>
    <g clip-path="url(#p11274abbea)">
     <use style="fill:#1f77b4;fill-opacity:0.8;stroke:#1f77b4;stroke-opacity:0.8;" x="224.609222" xlink:href="#m9bee72e394" y="212.594755"/>
     <use style="fill:#1f77b4;fill-opacity:0.8;stroke:#1f77b4;stroke-opacity:0.8;" x="208.893041" xlink:href="#m9bee72e394" y="182.296907"/>
     <use style="fill:#1f77b4;fill-opacity:0.8;stroke:#1f77b4;stroke-opacity:0.8;" x="184.566398" xlink:href="#m9bee72e394" y="128.413538"/>
     <use style="fill:#1f77b4;fill-opacity:0.8;stroke:#1f77b4;stroke-opacity:0.8;" x="269.166269" xlink:href="#m9bee72e394" y="58.088044"/>
     <use style="fill:#1f77b4;fill-opacity:0.8;stroke:#1f77b4;stroke-opacity:0.8;" x="238.987856" xlink:href="#m9bee72e394" y="121.454886"/>
     <use style="fill:#1f77b4;fill-opacity:0.8;stroke:#1f77b4;stroke-opacity:0.8;" x="213.156473" xlink:href="#m9bee72e394" y="228.790557"/>
     <use style="fill:#1f77b4;fill-opacity:0.8;stroke:#1f77b4;stroke-opacity:0.8;" x="199.780999" xlink:href="#m9bee72e394" y="76.870247"/>
     <use style="fill:#1f77b4;fill-opacity:0.8;stroke:#1f77b4;stroke-opacity:0.8;" x="162.580463" xlink:href="#m9bee72e394" y="202.495473"/>
     <use style="fill:#1f77b4;fill-opacity:0.8;stroke:#1f77b4;stroke-opacity:0.8;" x="140.260142" xlink:href="#m9bee72e394" y="171.520233"/>
     <use style="fill:#1f77b4;fill-opacity:0.8;stroke:#1f77b4;stroke-opacity:0.8;" x="255.205618" xlink:href="#m9bee72e394" y="115.235206"/>
     <use style="fill:#1f77b4;fill-opacity:0.8;stroke:#1f77b4;stroke-opacity:0.8;" x="215.915164" xlink:href="#m9bee72e394" y="194.613105"/>
     <use style="fill:#1f77b4;fill-opacity:0.8;stroke:#1f77b4;stroke-opacity:0.8;" x="259.887034" xlink:href="#m9bee72e394" y="213.764794"/>
     <use style="fill:#1f77b4;fill-opacity:0.8;stroke:#1f77b4;stroke-opacity:0.8;" x="219.509823" xlink:href="#m9bee72e394" y="192.580933"/>
     <use style="fill:#1f77b4;fill-opacity:0.8;stroke:#1f77b4;stroke-opacity:0.8;" x="236.396358" xlink:href="#m9bee72e394" y="55.008995"/>
     <use style="fill:#1f77b4;fill-opacity:0.8;stroke:#1f77b4;stroke-opacity:0.8;" x="198.694242" xlink:href="#m9bee72e394" y="106.367543"/>
     <use style="fill:#1f77b4;fill-opacity:0.8;stroke:#1f77b4;stroke-opacity:0.8;" x="183.145254" xlink:href="#m9bee72e394" y="183.528527"/>
     <use style="fill:#1f77b4;fill-opacity:0.8;stroke:#1f77b4;stroke-opacity:0.8;" x="209.645411" xlink:href="#m9bee72e394" y="126.011879"/>
     <use style="fill:#1f77b4;fill-opacity:0.8;stroke:#1f77b4;stroke-opacity:0.8;" x="192.758876" xlink:href="#m9bee72e394" y="61.844485"/>
     <use style="fill:#1f77b4;fill-opacity:0.8;stroke:#1f77b4;stroke-opacity:0.8;" x="281.789372" xlink:href="#m9bee72e394" y="168.687508"/>
     <use style="fill:#1f77b4;fill-opacity:0.8;stroke:#1f77b4;stroke-opacity:0.8;" x="204.128028" xlink:href="#m9bee72e394" y="130.876778"/>
     <use style="fill:#1f77b4;fill-opacity:0.8;stroke:#1f77b4;stroke-opacity:0.8;" x="216.082358" xlink:href="#m9bee72e394" y="35.179915"/>
     <use style="fill:#1f77b4;fill-opacity:0.8;stroke:#1f77b4;stroke-opacity:0.8;" x="201.78732" xlink:href="#m9bee72e394" y="169.118574"/>
     <use style="fill:#1f77b4;fill-opacity:0.8;stroke:#1f77b4;stroke-opacity:0.8;" x="200.78416" xlink:href="#m9bee72e394" y="131.985236"/>
     <use style="fill:#1f77b4;fill-opacity:0.8;stroke:#1f77b4;stroke-opacity:0.8;" x="218.841049" xlink:href="#m9bee72e394" y="246.649044"/>
     <use style="fill:#1f77b4;fill-opacity:0.8;stroke:#1f77b4;stroke-opacity:0.8;" x="150.542537" xlink:href="#m9bee72e394" y="118.129512"/>
     <use style="fill:#1f77b4;fill-opacity:0.8;stroke:#1f77b4;stroke-opacity:0.8;" x="308.205932" xlink:href="#m9bee72e394" y="140.29867"/>
     <use style="fill:#1f77b4;fill-opacity:0.8;stroke:#1f77b4;stroke-opacity:0.8;" x="281.371388" xlink:href="#m9bee72e394" y="24.772727"/>
     <use style="fill:#1f77b4;fill-opacity:0.8;stroke:#1f77b4;stroke-opacity:0.8;" x="286.470788" xlink:href="#m9bee72e394" y="97.253556"/>
     <use style="fill:#1f77b4;fill-opacity:0.8;stroke:#1f77b4;stroke-opacity:0.8;" x="178.798225" xlink:href="#m9bee72e394" y="207.668276"/>
     <use style="fill:#1f77b4;fill-opacity:0.8;stroke:#1f77b4;stroke-opacity:0.8;" x="240.325404" xlink:href="#m9bee72e394" y="225.095697"/>
     <use style="fill:#1f77b4;fill-opacity:0.8;stroke:#1f77b4;stroke-opacity:0.8;" x="248.601478" xlink:href="#m9bee72e394" y="224.910954"/>
     <use style="fill:#1f77b4;fill-opacity:0.8;stroke:#1f77b4;stroke-opacity:0.8;" x="285.634821" xlink:href="#m9bee72e394" y="73.052226"/>
     <use style="fill:#1f77b4;fill-opacity:0.8;stroke:#1f77b4;stroke-opacity:0.8;" x="184.315608" xlink:href="#m9bee72e394" y="195.53682"/>
     <use style="fill:#1f77b4;fill-opacity:0.8;stroke:#1f77b4;stroke-opacity:0.8;" x="281.037002" xlink:href="#m9bee72e394" y="177.616751"/>
     <use style="fill:#1f77b4;fill-opacity:0.8;stroke:#1f77b4;stroke-opacity:0.8;" x="200.198983" xlink:href="#m9bee72e394" y="106.860191"/>
     <use style="fill:#1f77b4;fill-opacity:0.8;stroke:#1f77b4;stroke-opacity:0.8;" x="220.34579" xlink:href="#m9bee72e394" y="223.987239"/>
     <use style="fill:#1f77b4;fill-opacity:0.8;stroke:#1f77b4;stroke-opacity:0.8;" x="174.61839" xlink:href="#m9bee72e394" y="281.688629"/>
     <use style="fill:#1f77b4;fill-opacity:0.8;stroke:#1f77b4;stroke-opacity:0.8;" x="260.723001" xlink:href="#m9bee72e394" y="142.330843"/>
     <use style="fill:#1f77b4;fill-opacity:0.8;stroke:#1f77b4;stroke-opacity:0.8;" x="264.902837" xlink:href="#m9bee72e394" y="41.7075"/>
     <use style="fill:#1f77b4;fill-opacity:0.8;stroke:#1f77b4;stroke-opacity:0.8;" x="165.840735" xlink:href="#m9bee72e394" y="255.947774"/>
     <use style="fill:#1f77b4;fill-opacity:0.8;stroke:#1f77b4;stroke-opacity:0.8;" x="205.799962" xlink:href="#m9bee72e394" y="183.466946"/>
     <use style="fill:#1f77b4;fill-opacity:0.8;stroke:#1f77b4;stroke-opacity:0.8;" x="208.475057" xlink:href="#m9bee72e394" y="223.125105"/>
     <use style="fill:#1f77b4;fill-opacity:0.8;stroke:#1f77b4;stroke-opacity:0.8;" x="232.467313" xlink:href="#m9bee72e394" y="229.960595"/>
     <use style="fill:#1f77b4;fill-opacity:0.8;stroke:#1f77b4;stroke-opacity:0.8;" x="235.058811" xlink:href="#m9bee72e394" y="70.83531"/>
     <use style="fill:#1f77b4;fill-opacity:0.8;stroke:#1f77b4;stroke-opacity:0.8;" x="107.155844" xlink:href="#m9bee72e394" y="63.568753"/>
     <use style="fill:#1f77b4;fill-opacity:0.8;stroke:#1f77b4;stroke-opacity:0.8;" x="266.658367" xlink:href="#m9bee72e394" y="119.976942"/>
     <use style="fill:#1f77b4;fill-opacity:0.8;stroke:#1f77b4;stroke-opacity:0.8;" x="58.836946" xlink:href="#m9bee72e394" y="198.739032"/>
     <use style="fill:#1f77b4;fill-opacity:0.8;stroke:#1f77b4;stroke-opacity:0.8;" x="211.568135" xlink:href="#m9bee72e394" y="140.483413"/>
     <use style="fill:#1f77b4;fill-opacity:0.8;stroke:#1f77b4;stroke-opacity:0.8;" x="210.899362" xlink:href="#m9bee72e394" y="140.729737"/>
     <use style="fill:#1f77b4;fill-opacity:0.8;stroke:#1f77b4;stroke-opacity:0.8;" x="242.164531" xlink:href="#m9bee72e394" y="201.07911"/>
     <use style="fill:#1f77b4;fill-opacity:0.8;stroke:#1f77b4;stroke-opacity:0.8;" x="218.924646" xlink:href="#m9bee72e394" y="225.526764"/>
     <use style="fill:#1f77b4;fill-opacity:0.8;stroke:#1f77b4;stroke-opacity:0.8;" x="276.439183" xlink:href="#m9bee72e394" y="132.416303"/>
     <use style="fill:#1f77b4;fill-opacity:0.8;stroke:#1f77b4;stroke-opacity:0.8;" x="303.357323" xlink:href="#m9bee72e394" y="137.404363"/>
     <use style="fill:#1f77b4;fill-opacity:0.8;stroke:#1f77b4;stroke-opacity:0.8;" x="166.509509" xlink:href="#m9bee72e394" y="183.159041"/>
     <use style="fill:#1f77b4;fill-opacity:0.8;stroke:#1f77b4;stroke-opacity:0.8;" x="105.065927" xlink:href="#m9bee72e394" y="258.411014"/>
     <use style="fill:#1f77b4;fill-opacity:0.8;stroke:#1f77b4;stroke-opacity:0.8;" x="102.474429" xlink:href="#m9bee72e394" y="162.960475"/>
     <use style="fill:#1f77b4;fill-opacity:0.8;stroke:#1f77b4;stroke-opacity:0.8;" x="275.603215" xlink:href="#m9bee72e394" y="124.533936"/>
     <use style="fill:#1f77b4;fill-opacity:0.8;stroke:#1f77b4;stroke-opacity:0.8;" x="224.609222" xlink:href="#m9bee72e394" y="260.997416"/>
     <use style="fill:#1f77b4;fill-opacity:0.8;stroke:#1f77b4;stroke-opacity:0.8;" x="242.833305" xlink:href="#m9bee72e394" y="174.41454"/>
     <use style="fill:#1f77b4;fill-opacity:0.8;stroke:#1f77b4;stroke-opacity:0.8;" x="267.995915" xlink:href="#m9bee72e394" y="89.001703"/>
     <use style="fill:#1f77b4;fill-opacity:0.8;stroke:#1f77b4;stroke-opacity:0.8;" x="205.465576" xlink:href="#m9bee72e394" y="226.696803"/>
     <use style="fill:#1f77b4;fill-opacity:0.8;stroke:#1f77b4;stroke-opacity:0.8;" x="220.930967" xlink:href="#m9bee72e394" y="140.606575"/>
     <use style="fill:#1f77b4;fill-opacity:0.8;stroke:#1f77b4;stroke-opacity:0.8;" x="271.005396" xlink:href="#m9bee72e394" y="97.068813"/>
     <use style="fill:#1f77b4;fill-opacity:0.8;stroke:#1f77b4;stroke-opacity:0.8;" x="194.598003" xlink:href="#m9bee72e394" y="163.083637"/>
     <use style="fill:#1f77b4;fill-opacity:0.8;stroke:#1f77b4;stroke-opacity:0.8;" x="236.981535" xlink:href="#m9bee72e394" y="182.48165"/>
     <use style="fill:#1f77b4;fill-opacity:0.8;stroke:#1f77b4;stroke-opacity:0.8;" x="213.072876" xlink:href="#m9bee72e394" y="228.174747"/>
     <use style="fill:#1f77b4;fill-opacity:0.8;stroke:#1f77b4;stroke-opacity:0.8;" x="192.842472" xlink:href="#m9bee72e394" y="234.702332"/>
     <use style="fill:#1f77b4;fill-opacity:0.8;stroke:#1f77b4;stroke-opacity:0.8;" x="208.39146" xlink:href="#m9bee72e394" y="217.521235"/>
     <use style="fill:#1f77b4;fill-opacity:0.8;stroke:#1f77b4;stroke-opacity:0.8;" x="175.287163" xlink:href="#m9bee72e394" y="42.076986"/>
     <use style="fill:#1f77b4;fill-opacity:0.8;stroke:#1f77b4;stroke-opacity:0.8;" x="341.644616" xlink:href="#m9bee72e394" y="53.223146"/>
     <use style="fill:#1f77b4;fill-opacity:0.8;stroke:#1f77b4;stroke-opacity:0.8;" x="207.471897" xlink:href="#m9bee72e394" y="127.243499"/>
     <use style="fill:#1f77b4;fill-opacity:0.8;stroke:#1f77b4;stroke-opacity:0.8;" x="199.279419" xlink:href="#m9bee72e394" y="178.971533"/>
     <use style="fill:#1f77b4;fill-opacity:0.8;stroke:#1f77b4;stroke-opacity:0.8;" x="260.472211" xlink:href="#m9bee72e394" y="38.012641"/>
     <use style="fill:#1f77b4;fill-opacity:0.8;stroke:#1f77b4;stroke-opacity:0.8;" x="132.987228" xlink:href="#m9bee72e394" y="155.078108"/>
     <use style="fill:#1f77b4;fill-opacity:0.8;stroke:#1f77b4;stroke-opacity:0.8;" x="241.830145" xlink:href="#m9bee72e394" y="113.942005"/>
     <use style="fill:#1f77b4;fill-opacity:0.8;stroke:#1f77b4;stroke-opacity:0.8;" x="172.862859" xlink:href="#m9bee72e394" y="152.368544"/>
     <use style="fill:#1f77b4;fill-opacity:0.8;stroke:#1f77b4;stroke-opacity:0.8;" x="204.963995" xlink:href="#m9bee72e394" y="156.43289"/>
     <use style="fill:#1f77b4;fill-opacity:0.8;stroke:#1f77b4;stroke-opacity:0.8;" x="234.808021" xlink:href="#m9bee72e394" y="122.501763"/>
     <use style="fill:#1f77b4;fill-opacity:0.8;stroke:#1f77b4;stroke-opacity:0.8;" x="318.739118" xlink:href="#m9bee72e394" y="152.614868"/>
     <use style="fill:#1f77b4;fill-opacity:0.8;stroke:#1f77b4;stroke-opacity:0.8;" x="298.508714" xlink:href="#m9bee72e394" y="110.678212"/>
     <use style="fill:#1f77b4;fill-opacity:0.8;stroke:#1f77b4;stroke-opacity:0.8;" x="231.129766" xlink:href="#m9bee72e394" y="129.398834"/>
     <use style="fill:#1f77b4;fill-opacity:0.8;stroke:#1f77b4;stroke-opacity:0.8;" x="254.871231" xlink:href="#m9bee72e394" y="155.386013"/>
     <use style="fill:#1f77b4;fill-opacity:0.8;stroke:#1f77b4;stroke-opacity:0.8;" x="238.235486" xlink:href="#m9bee72e394" y="110.616631"/>
     <use style="fill:#1f77b4;fill-opacity:0.8;stroke:#1f77b4;stroke-opacity:0.8;" x="231.464152" xlink:href="#m9bee72e394" y="214.934833"/>
     <use style="fill:#1f77b4;fill-opacity:0.8;stroke:#1f77b4;stroke-opacity:0.8;" x="191.922909" xlink:href="#m9bee72e394" y="233.840198"/>
     <use style="fill:#1f77b4;fill-opacity:0.8;stroke:#1f77b4;stroke-opacity:0.8;" x="161.577303" xlink:href="#m9bee72e394" y="117.575283"/>
     <use style="fill:#1f77b4;fill-opacity:0.8;stroke:#1f77b4;stroke-opacity:0.8;" x="303.9425" xlink:href="#m9bee72e394" y="126.442946"/>
     <use style="fill:#1f77b4;fill-opacity:0.8;stroke:#1f77b4;stroke-opacity:0.8;" x="214.49402" xlink:href="#m9bee72e394" y="215.735386"/>
     <use style="fill:#1f77b4;fill-opacity:0.8;stroke:#1f77b4;stroke-opacity:0.8;" x="196.687921" xlink:href="#m9bee72e394" y="212.410012"/>
     <use style="fill:#1f77b4;fill-opacity:0.8;stroke:#1f77b4;stroke-opacity:0.8;" x="206.134349" xlink:href="#m9bee72e394" y="140.175508"/>
     <use style="fill:#1f77b4;fill-opacity:0.8;stroke:#1f77b4;stroke-opacity:0.8;" x="290.567027" xlink:href="#m9bee72e394" y="111.909832"/>
     <use style="fill:#1f77b4;fill-opacity:0.8;stroke:#1f77b4;stroke-opacity:0.8;" x="174.61839" xlink:href="#m9bee72e394" y="234.332846"/>
     <use style="fill:#1f77b4;fill-opacity:0.8;stroke:#1f77b4;stroke-opacity:0.8;" x="303.273727" xlink:href="#m9bee72e394" y="51.00623"/>
     <use style="fill:#1f77b4;fill-opacity:0.8;stroke:#1f77b4;stroke-opacity:0.8;" x="124.79475" xlink:href="#m9bee72e394" y="290.002063"/>
     <use style="fill:#1f77b4;fill-opacity:0.8;stroke:#1f77b4;stroke-opacity:0.8;" x="196.437131" xlink:href="#m9bee72e394" y="106.244381"/>
     <use style="fill:#1f77b4;fill-opacity:0.8;stroke:#1f77b4;stroke-opacity:0.8;" x="238.569873" xlink:href="#m9bee72e394" y="304.227273"/>
     <use style="fill:#1f77b4;fill-opacity:0.8;stroke:#1f77b4;stroke-opacity:0.8;" x="254.704038" xlink:href="#m9bee72e394" y="133.216856"/>
     <use style="fill:#1f77b4;fill-opacity:0.8;stroke:#1f77b4;stroke-opacity:0.8;" x="173.615229" xlink:href="#m9bee72e394" y="251.637105"/>
     <use style="fill:#1f77b4;fill-opacity:0.8;stroke:#1f77b4;stroke-opacity:0.8;" x="178.631032" xlink:href="#m9bee72e394" y="228.482652"/>
     <use style="fill:#1f77b4;fill-opacity:0.8;stroke:#1f77b4;stroke-opacity:0.8;" x="215.580778" xlink:href="#m9bee72e394" y="172.320786"/>
     <use style="fill:#1f77b4;fill-opacity:0.8;stroke:#1f77b4;stroke-opacity:0.8;" x="154.220792" xlink:href="#m9bee72e394" y="236.4266"/>
     <use style="fill:#1f77b4;fill-opacity:0.8;stroke:#1f77b4;stroke-opacity:0.8;" x="329.10511" xlink:href="#m9bee72e394" y="82.905185"/>
     <use style="fill:#1f77b4;fill-opacity:0.8;stroke:#1f77b4;stroke-opacity:0.8;" x="256.793956" xlink:href="#m9bee72e394" y="68.803137"/>
     <use style="fill:#1f77b4;fill-opacity:0.8;stroke:#1f77b4;stroke-opacity:0.8;" x="272.342944" xlink:href="#m9bee72e394" y="78.779258"/>
     <use style="fill:#1f77b4;fill-opacity:0.8;stroke:#1f77b4;stroke-opacity:0.8;" x="306.199611" xlink:href="#m9bee72e394" y="115.666273"/>
     <use style="fill:#1f77b4;fill-opacity:0.8;stroke:#1f77b4;stroke-opacity:0.8;" x="259.636244" xlink:href="#m9bee72e394" y="213.333727"/>
     <use style="fill:#1f77b4;fill-opacity:0.8;stroke:#1f77b4;stroke-opacity:0.8;" x="182.309287" xlink:href="#m9bee72e394" y="184.513823"/>
     <use style="fill:#1f77b4;fill-opacity:0.8;stroke:#1f77b4;stroke-opacity:0.8;" x="184.148415" xlink:href="#m9bee72e394" y="295.051705"/>
    </g>
   </g>
   <g id="PolyCollection_1">
    <path clip-path="url(#p11274abbea)" d="M 58.836946 201.429263 
L 58.836946 280.874879 
L 61.693589 278.812452 
L 64.550232 276.749226 
L 67.406875 274.685964 
L 70.263519 272.62517 
L 73.120162 270.562743 
L 75.976805 268.521671 
L 78.833448 266.542019 
L 81.690091 264.551039 
L 84.546734 262.492284 
L 87.403377 260.432321 
L 90.260021 258.363329 
L 93.116664 256.170678 
L 95.973307 254.063325 
L 98.82995 252.000898 
L 101.686593 249.93847 
L 104.543236 247.876043 
L 107.399879 245.832601 
L 110.256522 243.92143 
L 113.113166 241.884832 
L 115.969809 239.827832 
L 118.826452 237.770833 
L 121.683095 235.713833 
L 124.539738 233.743701 
L 127.396381 231.89406 
L 130.253024 230.044419 
L 133.109668 228.121975 
L 135.966311 226.046234 
L 138.822954 223.912784 
L 141.679597 221.968884 
L 144.53624 219.796656 
L 147.392883 217.604204 
L 150.249526 215.734397 
L 153.10617 213.766784 
L 155.962813 211.559197 
L 158.819456 209.460142 
L 161.676099 207.374281 
L 164.532742 205.498854 
L 167.389385 203.520571 
L 170.246028 201.728608 
L 173.102671 199.899384 
L 175.959315 198.177543 
L 178.815958 196.274452 
L 181.672601 194.175819 
L 184.529244 192.262787 
L 187.385887 190.372746 
L 190.24253 188.652243 
L 193.099173 186.619852 
L 195.955817 184.636689 
L 198.81246 183.039096 
L 201.669103 181.375112 
L 204.525746 179.536206 
L 207.382389 177.716649 
L 210.239032 176.25981 
L 213.095675 174.711305 
L 215.952318 173.083141 
L 218.808962 171.310909 
L 221.665605 169.680177 
L 224.522248 168.070733 
L 227.378891 166.46129 
L 230.235534 165.089737 
L 233.092177 163.643443 
L 235.94882 162.483278 
L 238.805464 160.844907 
L 241.662107 159.577983 
L 244.51875 158.064306 
L 247.375393 156.98674 
L 250.232036 155.718837 
L 253.088679 154.336166 
L 255.945322 153.255444 
L 258.801966 152.046495 
L 261.658609 150.542509 
L 264.515252 149.407115 
L 267.371895 148.462457 
L 270.228538 147.135089 
L 273.085181 146.187162 
L 275.941824 145.007247 
L 278.798467 143.763162 
L 281.655111 142.648241 
L 284.511754 141.520909 
L 287.368397 140.400424 
L 290.22504 139.49302 
L 293.081683 138.493068 
L 295.938326 137.306755 
L 298.794969 136.280971 
L 301.651613 135.534907 
L 304.508256 134.601236 
L 307.364899 133.771421 
L 310.221542 132.605719 
L 313.078185 131.544265 
L 315.934828 130.345419 
L 318.791471 129.14242 
L 321.648115 128.071468 
L 324.504758 127.04528 
L 327.361401 126.019093 
L 330.218044 124.992905 
L 333.074687 124.081285 
L 335.93133 123.219283 
L 338.787973 122.152421 
L 341.644616 121.08556 
L 341.644616 70.243029 
L 341.644616 70.243029 
L 338.787973 72.152861 
L 335.93133 74.062693 
L 333.074687 75.972526 
L 330.218044 77.841475 
L 327.361401 79.777741 
L 324.504758 81.700102 
L 321.648115 83.609989 
L 318.791471 85.53797 
L 315.934828 87.524465 
L 313.078185 89.48557 
L 310.221542 91.399237 
L 307.364899 93.335043 
L 304.508256 95.439648 
L 301.651613 97.595169 
L 298.794969 99.690467 
L 295.938326 101.544585 
L 293.081683 103.510012 
L 290.22504 105.412588 
L 287.368397 107.322399 
L 284.511754 109.232315 
L 281.655111 111.228418 
L 278.798467 113.51137 
L 275.941824 115.554749 
L 273.085181 117.461484 
L 270.228538 119.319291 
L 267.371895 121.230105 
L 264.515252 123.123668 
L 261.658609 124.978817 
L 258.801966 127.027414 
L 255.945322 128.95517 
L 253.088679 130.599052 
L 250.232036 132.395175 
L 247.375393 134.112341 
L 244.51875 135.952153 
L 241.662107 137.715106 
L 238.805464 139.037908 
L 235.94882 140.690189 
L 233.092177 142.044517 
L 230.235534 143.474833 
L 227.378891 144.637542 
L 224.522248 145.977919 
L 221.665605 147.277924 
L 218.808962 148.426265 
L 215.952318 149.726685 
L 213.095675 150.735908 
L 210.239032 151.878763 
L 207.382389 153.012702 
L 204.525746 154.250289 
L 201.669103 155.213942 
L 198.81246 156.369249 
L 195.955817 157.579801 
L 193.099173 158.463537 
L 190.24253 159.39912 
L 187.385887 160.472838 
L 184.529244 161.65397 
L 181.672601 162.624711 
L 178.815958 163.696559 
L 175.959315 164.701191 
L 173.102671 165.559997 
L 170.246028 166.553339 
L 167.389385 167.535657 
L 164.532742 168.406519 
L 161.676099 169.194013 
L 158.819456 169.957757 
L 155.962813 170.794149 
L 153.10617 171.89991 
L 150.249526 172.873106 
L 147.392883 173.763914 
L 144.53624 174.656258 
L 141.679597 175.551481 
L 138.822954 176.645965 
L 135.966311 177.571291 
L 133.109668 178.497033 
L 130.253024 179.422776 
L 127.396381 180.373628 
L 124.539738 181.359246 
L 121.683095 182.345048 
L 118.826452 183.236325 
L 115.969809 184.270207 
L 113.113166 185.305993 
L 110.256522 186.294929 
L 107.399879 187.283865 
L 104.543236 188.228471 
L 101.686593 189.109238 
L 98.82995 190.013554 
L 95.973307 190.868848 
L 93.116664 191.594766 
L 90.260021 192.360965 
L 87.403377 193.281895 
L 84.546734 194.18053 
L 81.690091 195.057933 
L 78.833448 196.024536 
L 75.976805 196.921397 
L 73.120162 197.606615 
L 70.263519 198.291833 
L 67.406875 198.977051 
L 64.550232 199.850819 
L 61.693589 200.697678 
L 58.836946 201.429263 
z
" style="fill:#1f77b4;fill-opacity:0.15;"/>
   </g>
   <g id="matplotlib.axis_1">
    <g id="xtick_1">
     <g id="line2d_1">
      <defs>
       <path d="M 0 0 
L 0 3.5 
" id="m40e664e0ab" style="stroke:#000000;stroke-width:0.8;"/>
      </defs>
      <g>
       <use style="stroke:#000000;stroke-width:0.8;" x="71.96163" xlink:href="#m40e664e0ab" y="318.2"/>
      </g>
     </g>
     <g id="text_1">
      <!-- 50 -->
      <g transform="translate(65.59913 332.798438)scale(0.1 -0.1)">
       <defs>
        <path d="M 691 4666 
L 3169 4666 
L 3169 4134 
L 1269 4134 
L 1269 2991 
Q 1406 3038 1543 3061 
Q 1681 3084 1819 3084 
Q 2600 3084 3056 2656 
Q 3513 2228 3513 1497 
Q 3513 744 3044 326 
Q 2575 -91 1722 -91 
Q 1428 -91 1123 -41 
Q 819 9 494 109 
L 494 744 
Q 775 591 1075 516 
Q 1375 441 1709 441 
Q 2250 441 2565 725 
Q 2881 1009 2881 1497 
Q 2881 1984 2565 2268 
Q 2250 2553 1709 2553 
Q 1456 2553 1204 2497 
Q 953 2441 691 2322 
L 691 4666 
z
" id="DejaVuSans-35" transform="scale(0.015625)"/>
        <path d="M 2034 4250 
Q 1547 4250 1301 3770 
Q 1056 3291 1056 2328 
Q 1056 1369 1301 889 
Q 1547 409 2034 409 
Q 2525 409 2770 889 
Q 3016 1369 3016 2328 
Q 3016 3291 2770 3770 
Q 2525 4250 2034 4250 
z
M 2034 4750 
Q 2819 4750 3233 4129 
Q 3647 3509 3647 2328 
Q 3647 1150 3233 529 
Q 2819 -91 2034 -91 
Q 1250 -91 836 529 
Q 422 1150 422 2328 
Q 422 3509 836 4129 
Q 1250 4750 2034 4750 
z
" id="DejaVuSans-30" transform="scale(0.015625)"/>
       </defs>
       <use xlink:href="#DejaVuSans-35"/>
       <use x="63.623047" xlink:href="#DejaVuSans-30"/>
      </g>
     </g>
    </g>
    <g id="xtick_2">
     <g id="line2d_2">
      <g>
       <use style="stroke:#000000;stroke-width:0.8;" x="113.759985" xlink:href="#m40e664e0ab" y="318.2"/>
      </g>
     </g>
     <g id="text_2">
      <!-- 55 -->
      <g transform="translate(107.397485 332.798438)scale(0.1 -0.1)">
       <use xlink:href="#DejaVuSans-35"/>
       <use x="63.623047" xlink:href="#DejaVuSans-35"/>
      </g>
     </g>
    </g>
    <g id="xtick_3">
     <g id="line2d_3">
      <g>
       <use style="stroke:#000000;stroke-width:0.8;" x="155.55834" xlink:href="#m40e664e0ab" y="318.2"/>
      </g>
     </g>
     <g id="text_3">
      <!-- 60 -->
      <g transform="translate(149.19584 332.798438)scale(0.1 -0.1)">
       <defs>
        <path d="M 2113 2584 
Q 1688 2584 1439 2293 
Q 1191 2003 1191 1497 
Q 1191 994 1439 701 
Q 1688 409 2113 409 
Q 2538 409 2786 701 
Q 3034 994 3034 1497 
Q 3034 2003 2786 2293 
Q 2538 2584 2113 2584 
z
M 3366 4563 
L 3366 3988 
Q 3128 4100 2886 4159 
Q 2644 4219 2406 4219 
Q 1781 4219 1451 3797 
Q 1122 3375 1075 2522 
Q 1259 2794 1537 2939 
Q 1816 3084 2150 3084 
Q 2853 3084 3261 2657 
Q 3669 2231 3669 1497 
Q 3669 778 3244 343 
Q 2819 -91 2113 -91 
Q 1303 -91 875 529 
Q 447 1150 447 2328 
Q 447 3434 972 4092 
Q 1497 4750 2381 4750 
Q 2619 4750 2861 4703 
Q 3103 4656 3366 4563 
z
" id="DejaVuSans-36" transform="scale(0.015625)"/>
       </defs>
       <use xlink:href="#DejaVuSans-36"/>
       <use x="63.623047" xlink:href="#DejaVuSans-30"/>
      </g>
     </g>
    </g>
    <g id="xtick_4">
     <g id="line2d_4">
      <g>
       <use style="stroke:#000000;stroke-width:0.8;" x="197.356695" xlink:href="#m40e664e0ab" y="318.2"/>
      </g>
     </g>
     <g id="text_4">
      <!-- 65 -->
      <g transform="translate(190.994195 332.798438)scale(0.1 -0.1)">
       <use xlink:href="#DejaVuSans-36"/>
       <use x="63.623047" xlink:href="#DejaVuSans-35"/>
      </g>
     </g>
    </g>
    <g id="xtick_5">
     <g id="line2d_5">
      <g>
       <use style="stroke:#000000;stroke-width:0.8;" x="239.15505" xlink:href="#m40e664e0ab" y="318.2"/>
      </g>
     </g>
     <g id="text_5">
      <!-- 70 -->
      <g transform="translate(232.79255 332.798438)scale(0.1 -0.1)">
       <defs>
        <path d="M 525 4666 
L 3525 4666 
L 3525 4397 
L 1831 0 
L 1172 0 
L 2766 4134 
L 525 4134 
L 525 4666 
z
" id="DejaVuSans-37" transform="scale(0.015625)"/>
       </defs>
       <use xlink:href="#DejaVuSans-37"/>
       <use x="63.623047" xlink:href="#DejaVuSans-30"/>
      </g>
     </g>
    </g>
    <g id="xtick_6">
     <g id="line2d_6">
      <g>
       <use style="stroke:#000000;stroke-width:0.8;" x="280.953405" xlink:href="#m40e664e0ab" y="318.2"/>
      </g>
     </g>
     <g id="text_6">
      <!-- 75 -->
      <g transform="translate(274.590905 332.798438)scale(0.1 -0.1)">
       <use xlink:href="#DejaVuSans-37"/>
       <use x="63.623047" xlink:href="#DejaVuSans-35"/>
      </g>
     </g>
    </g>
    <g id="xtick_7">
     <g id="line2d_7">
      <g>
       <use style="stroke:#000000;stroke-width:0.8;" x="322.75176" xlink:href="#m40e664e0ab" y="318.2"/>
      </g>
     </g>
     <g id="text_7">
      <!-- 80 -->
      <g transform="translate(316.38926 332.798438)scale(0.1 -0.1)">
       <defs>
        <path d="M 2034 2216 
Q 1584 2216 1326 1975 
Q 1069 1734 1069 1313 
Q 1069 891 1326 650 
Q 1584 409 2034 409 
Q 2484 409 2743 651 
Q 3003 894 3003 1313 
Q 3003 1734 2745 1975 
Q 2488 2216 2034 2216 
z
M 1403 2484 
Q 997 2584 770 2862 
Q 544 3141 544 3541 
Q 544 4100 942 4425 
Q 1341 4750 2034 4750 
Q 2731 4750 3128 4425 
Q 3525 4100 3525 3541 
Q 3525 3141 3298 2862 
Q 3072 2584 2669 2484 
Q 3125 2378 3379 2068 
Q 3634 1759 3634 1313 
Q 3634 634 3220 271 
Q 2806 -91 2034 -91 
Q 1263 -91 848 271 
Q 434 634 434 1313 
Q 434 1759 690 2068 
Q 947 2378 1403 2484 
z
M 1172 3481 
Q 1172 3119 1398 2916 
Q 1625 2713 2034 2713 
Q 2441 2713 2670 2916 
Q 2900 3119 2900 3481 
Q 2900 3844 2670 4047 
Q 2441 4250 2034 4250 
Q 1625 4250 1398 4047 
Q 1172 3844 1172 3481 
z
" id="DejaVuSans-38" transform="scale(0.015625)"/>
       </defs>
       <use xlink:href="#DejaVuSans-38"/>
       <use x="63.623047" xlink:href="#DejaVuSans-30"/>
      </g>
     </g>
    </g>
    <g id="text_8">
     <!-- Index -->
     <g transform="translate(186.474375 346.476562)scale(0.1 -0.1)">
      <defs>
       <path d="M 628 4666 
L 1259 4666 
L 1259 0 
L 628 0 
L 628 4666 
z
" id="DejaVuSans-49" transform="scale(0.015625)"/>
       <path d="M 3513 2113 
L 3513 0 
L 2938 0 
L 2938 2094 
Q 2938 2591 2744 2837 
Q 2550 3084 2163 3084 
Q 1697 3084 1428 2787 
Q 1159 2491 1159 1978 
L 1159 0 
L 581 0 
L 581 3500 
L 1159 3500 
L 1159 2956 
Q 1366 3272 1645 3428 
Q 1925 3584 2291 3584 
Q 2894 3584 3203 3211 
Q 3513 2838 3513 2113 
z
" id="DejaVuSans-6e" transform="scale(0.015625)"/>
       <path d="M 2906 2969 
L 2906 4863 
L 3481 4863 
L 3481 0 
L 2906 0 
L 2906 525 
Q 2725 213 2448 61 
Q 2172 -91 1784 -91 
Q 1150 -91 751 415 
Q 353 922 353 1747 
Q 353 2572 751 3078 
Q 1150 3584 1784 3584 
Q 2172 3584 2448 3432 
Q 2725 3281 2906 2969 
z
M 947 1747 
Q 947 1113 1208 752 
Q 1469 391 1925 391 
Q 2381 391 2643 752 
Q 2906 1113 2906 1747 
Q 2906 2381 2643 2742 
Q 2381 3103 1925 3103 
Q 1469 3103 1208 2742 
Q 947 2381 947 1747 
z
" id="DejaVuSans-64" transform="scale(0.015625)"/>
       <path d="M 3597 1894 
L 3597 1613 
L 953 1613 
Q 991 1019 1311 708 
Q 1631 397 2203 397 
Q 2534 397 2845 478 
Q 3156 559 3463 722 
L 3463 178 
Q 3153 47 2828 -22 
Q 2503 -91 2169 -91 
Q 1331 -91 842 396 
Q 353 884 353 1716 
Q 353 2575 817 3079 
Q 1281 3584 2069 3584 
Q 2775 3584 3186 3129 
Q 3597 2675 3597 1894 
z
M 3022 2063 
Q 3016 2534 2758 2815 
Q 2500 3097 2075 3097 
Q 1594 3097 1305 2825 
Q 1016 2553 972 2059 
L 3022 2063 
z
" id="DejaVuSans-65" transform="scale(0.015625)"/>
       <path d="M 3513 3500 
L 2247 1797 
L 3578 0 
L 2900 0 
L 1881 1375 
L 863 0 
L 184 0 
L 1544 1831 
L 300 3500 
L 978 3500 
L 1906 2253 
L 2834 3500 
L 3513 3500 
z
" id="DejaVuSans-78" transform="scale(0.015625)"/>
      </defs>
      <use xlink:href="#DejaVuSans-49"/>
      <use x="29.492188" xlink:href="#DejaVuSans-6e"/>
      <use x="92.871094" xlink:href="#DejaVuSans-64"/>
      <use x="156.347656" xlink:href="#DejaVuSans-65"/>
      <use x="216.121094" xlink:href="#DejaVuSans-78"/>
     </g>
    </g>
   </g>
   <g id="matplotlib.axis_2">
    <g id="ytick_1">
     <g id="line2d_8">
      <defs>
       <path d="M 0 0 
L -3.5 0 
" id="m65b1e7d90a" style="stroke:#000000;stroke-width:0.8;"/>
      </defs>
      <g>
       <use style="stroke:#000000;stroke-width:0.8;" x="44.696563" xlink:href="#m65b1e7d90a" y="256.871489"/>
      </g>
     </g>
     <g id="text_9">
      <!-- 4 -->
      <g transform="translate(31.334063 260.670708)scale(0.1 -0.1)">
       <defs>
        <path d="M 2419 4116 
L 825 1625 
L 2419 1625 
L 2419 4116 
z
M 2253 4666 
L 3047 4666 
L 3047 1625 
L 3713 1625 
L 3713 1100 
L 3047 1100 
L 3047 0 
L 2419 0 
L 2419 1100 
L 313 1100 
L 313 1709 
L 2253 4666 
z
" id="DejaVuSans-34" transform="scale(0.015625)"/>
       </defs>
       <use xlink:href="#DejaVuSans-34"/>
      </g>
     </g>
    </g>
    <g id="ytick_2">
     <g id="line2d_9">
      <g>
       <use style="stroke:#000000;stroke-width:0.8;" x="44.696563" xlink:href="#m65b1e7d90a" y="195.290496"/>
      </g>
     </g>
     <g id="text_10">
      <!-- 5 -->
      <g transform="translate(31.334063 199.089715)scale(0.1 -0.1)">
       <use xlink:href="#DejaVuSans-35"/>
      </g>
     </g>
    </g>
    <g id="ytick_3">
     <g id="line2d_10">
      <g>
       <use style="stroke:#000000;stroke-width:0.8;" x="44.696563" xlink:href="#m65b1e7d90a" y="133.709504"/>
      </g>
     </g>
     <g id="text_11">
      <!-- 6 -->
      <g transform="translate(31.334063 137.508722)scale(0.1 -0.1)">
       <use xlink:href="#DejaVuSans-36"/>
      </g>
     </g>
    </g>
    <g id="ytick_4">
     <g id="line2d_11">
      <g>
       <use style="stroke:#000000;stroke-width:0.8;" x="44.696563" xlink:href="#m65b1e7d90a" y="72.128511"/>
      </g>
     </g>
     <g id="text_12">
      <!-- 7 -->
      <g transform="translate(31.334063 75.92773)scale(0.1 -0.1)">
       <use xlink:href="#DejaVuSans-37"/>
      </g>
     </g>
    </g>
    <g id="text_13">
     <!-- score -->
     <g transform="translate(25.254375 177.932813)rotate(-90)scale(0.1 -0.1)">
      <defs>
       <path d="M 2834 3397 
L 2834 2853 
Q 2591 2978 2328 3040 
Q 2066 3103 1784 3103 
Q 1356 3103 1142 2972 
Q 928 2841 928 2578 
Q 928 2378 1081 2264 
Q 1234 2150 1697 2047 
L 1894 2003 
Q 2506 1872 2764 1633 
Q 3022 1394 3022 966 
Q 3022 478 2636 193 
Q 2250 -91 1575 -91 
Q 1294 -91 989 -36 
Q 684 19 347 128 
L 347 722 
Q 666 556 975 473 
Q 1284 391 1588 391 
Q 1994 391 2212 530 
Q 2431 669 2431 922 
Q 2431 1156 2273 1281 
Q 2116 1406 1581 1522 
L 1381 1569 
Q 847 1681 609 1914 
Q 372 2147 372 2553 
Q 372 3047 722 3315 
Q 1072 3584 1716 3584 
Q 2034 3584 2315 3537 
Q 2597 3491 2834 3397 
z
" id="DejaVuSans-73" transform="scale(0.015625)"/>
       <path d="M 3122 3366 
L 3122 2828 
Q 2878 2963 2633 3030 
Q 2388 3097 2138 3097 
Q 1578 3097 1268 2742 
Q 959 2388 959 1747 
Q 959 1106 1268 751 
Q 1578 397 2138 397 
Q 2388 397 2633 464 
Q 2878 531 3122 666 
L 3122 134 
Q 2881 22 2623 -34 
Q 2366 -91 2075 -91 
Q 1284 -91 818 406 
Q 353 903 353 1747 
Q 353 2603 823 3093 
Q 1294 3584 2113 3584 
Q 2378 3584 2631 3529 
Q 2884 3475 3122 3366 
z
" id="DejaVuSans-63" transform="scale(0.015625)"/>
       <path d="M 1959 3097 
Q 1497 3097 1228 2736 
Q 959 2375 959 1747 
Q 959 1119 1226 758 
Q 1494 397 1959 397 
Q 2419 397 2687 759 
Q 2956 1122 2956 1747 
Q 2956 2369 2687 2733 
Q 2419 3097 1959 3097 
z
M 1959 3584 
Q 2709 3584 3137 3096 
Q 3566 2609 3566 1747 
Q 3566 888 3137 398 
Q 2709 -91 1959 -91 
Q 1206 -91 779 398 
Q 353 888 353 1747 
Q 353 2609 779 3096 
Q 1206 3584 1959 3584 
z
" id="DejaVuSans-6f" transform="scale(0.015625)"/>
       <path d="M 2631 2963 
Q 2534 3019 2420 3045 
Q 2306 3072 2169 3072 
Q 1681 3072 1420 2755 
Q 1159 2438 1159 1844 
L 1159 0 
L 581 0 
L 581 3500 
L 1159 3500 
L 1159 2956 
Q 1341 3275 1631 3429 
Q 1922 3584 2338 3584 
Q 2397 3584 2469 3576 
Q 2541 3569 2628 3553 
L 2631 2963 
z
" id="DejaVuSans-72" transform="scale(0.015625)"/>
      </defs>
      <use xlink:href="#DejaVuSans-73"/>
      <use x="52.099609" xlink:href="#DejaVuSans-63"/>
      <use x="107.080078" xlink:href="#DejaVuSans-6f"/>
      <use x="168.261719" xlink:href="#DejaVuSans-72"/>
      <use x="207.125" xlink:href="#DejaVuSans-65"/>
     </g>
    </g>
   </g>
   <g id="line2d_12">
    <path clip-path="url(#p11274abbea)" d="M 58.836946 241.176236 
L 61.693589 239.7155 
L 64.550232 238.254764 
L 67.406875 236.794028 
L 70.263519 235.333292 
L 73.120162 233.872556 
L 75.976805 232.41182 
L 78.833448 230.951084 
L 81.690091 229.490348 
L 84.546734 228.029612 
L 87.403377 226.568876 
L 90.260021 225.10814 
L 93.116664 223.647404 
L 95.973307 222.186668 
L 98.82995 220.725932 
L 101.686593 219.265196 
L 104.543236 217.80446 
L 107.399879 216.343724 
L 110.256522 214.882988 
L 113.113166 213.422252 
L 115.969809 211.961516 
L 118.826452 210.50078 
L 121.683095 209.040044 
L 124.539738 207.579309 
L 127.396381 206.118573 
L 130.253024 204.657837 
L 133.109668 203.197101 
L 135.966311 201.736365 
L 138.822954 200.275629 
L 141.679597 198.814893 
L 144.53624 197.354157 
L 147.392883 195.893421 
L 150.249526 194.432685 
L 153.10617 192.971949 
L 155.962813 191.511213 
L 158.819456 190.050477 
L 161.676099 188.589741 
L 164.532742 187.129005 
L 167.389385 185.668269 
L 170.246028 184.207533 
L 173.102671 182.746797 
L 175.959315 181.286061 
L 178.815958 179.825325 
L 181.672601 178.364589 
L 184.529244 176.903853 
L 187.385887 175.443117 
L 190.24253 173.982381 
L 193.099173 172.521645 
L 195.955817 171.060909 
L 198.81246 169.600173 
L 201.669103 168.139437 
L 204.525746 166.678701 
L 207.382389 165.217965 
L 210.239032 163.75723 
L 213.095675 162.296494 
L 215.952318 160.835758 
L 218.808962 159.375022 
L 221.665605 157.914286 
L 224.522248 156.45355 
L 227.378891 154.992814 
L 230.235534 153.532078 
L 233.092177 152.071342 
L 235.94882 150.610606 
L 238.805464 149.14987 
L 241.662107 147.689134 
L 244.51875 146.228398 
L 247.375393 144.767662 
L 250.232036 143.306926 
L 253.088679 141.84619 
L 255.945322 140.385454 
L 258.801966 138.924718 
L 261.658609 137.463982 
L 264.515252 136.003246 
L 267.371895 134.54251 
L 270.228538 133.081774 
L 273.085181 131.621038 
L 275.941824 130.160302 
L 278.798467 128.699566 
L 281.655111 127.23883 
L 284.511754 125.778094 
L 287.368397 124.317358 
L 290.22504 122.856622 
L 293.081683 121.395886 
L 295.938326 119.935151 
L 298.794969 118.474415 
L 301.651613 117.013679 
L 304.508256 115.552943 
L 307.364899 114.092207 
L 310.221542 112.631471 
L 313.078185 111.170735 
L 315.934828 109.709999 
L 318.791471 108.249263 
L 321.648115 106.788527 
L 324.504758 105.327791 
L 327.361401 103.867055 
L 330.218044 102.406319 
L 333.074687 100.945583 
L 335.93133 99.484847 
L 338.787973 98.024111 
L 341.644616 96.563375 
" style="fill:none;stroke:#1f77b4;stroke-linecap:square;stroke-width:2.25;"/>
   </g>
   <g id="patch_3">
    <path d="M 44.696563 318.2 
L 44.696563 10.8 
" style="fill:none;stroke:#000000;stroke-linecap:square;stroke-linejoin:miter;stroke-width:0.8;"/>
   </g>
   <g id="patch_4">
    <path d="M 44.696562 318.2 
L 355.785 318.2 
" style="fill:none;stroke:#000000;stroke-linecap:square;stroke-linejoin:miter;stroke-width:0.8;"/>
   </g>
  </g>
  <g id="legend_1">
   <g id="text_14">
    <!-- year -->
    <g transform="translate(374.619531 175.420312)scale(0.1 -0.1)">
     <defs>
      <path d="M 2059 -325 
Q 1816 -950 1584 -1140 
Q 1353 -1331 966 -1331 
L 506 -1331 
L 506 -850 
L 844 -850 
Q 1081 -850 1212 -737 
Q 1344 -625 1503 -206 
L 1606 56 
L 191 3500 
L 800 3500 
L 1894 763 
L 2988 3500 
L 3597 3500 
L 2059 -325 
z
" id="DejaVuSans-79" transform="scale(0.015625)"/>
      <path d="M 2194 1759 
Q 1497 1759 1228 1600 
Q 959 1441 959 1056 
Q 959 750 1161 570 
Q 1363 391 1709 391 
Q 2188 391 2477 730 
Q 2766 1069 2766 1631 
L 2766 1759 
L 2194 1759 
z
M 3341 1997 
L 3341 0 
L 2766 0 
L 2766 531 
Q 2569 213 2275 61 
Q 1981 -91 1556 -91 
Q 1019 -91 701 211 
Q 384 513 384 1019 
Q 384 1609 779 1909 
Q 1175 2209 1959 2209 
L 2766 2209 
L 2766 2266 
Q 2766 2663 2505 2880 
Q 2244 3097 1772 3097 
Q 1472 3097 1187 3025 
Q 903 2953 641 2809 
L 641 3341 
Q 956 3463 1253 3523 
Q 1550 3584 1831 3584 
Q 2591 3584 2966 3190 
Q 3341 2797 3341 1997 
z
" id="DejaVuSans-61" transform="scale(0.015625)"/>
     </defs>
     <use xlink:href="#DejaVuSans-79"/>
     <use x="59.179688" xlink:href="#DejaVuSans-65"/>
     <use x="120.703125" xlink:href="#DejaVuSans-61"/>
     <use x="181.982422" xlink:href="#DejaVuSans-72"/>
    </g>
   </g>
   <g id="PathCollection_2">
    <g>
     <use style="fill:#1f77b4;fill-opacity:0.8;stroke:#1f77b4;stroke-opacity:0.8;" x="369.05" xlink:href="#m9bee72e394" y="187.473437"/>
    </g>
   </g>
   <g id="text_15">
    <!-- 2019 -->
    <g transform="translate(387.05 190.098437)scale(0.1 -0.1)">
     <defs>
      <path d="M 1228 531 
L 3431 531 
L 3431 0 
L 469 0 
L 469 531 
Q 828 903 1448 1529 
Q 2069 2156 2228 2338 
Q 2531 2678 2651 2914 
Q 2772 3150 2772 3378 
Q 2772 3750 2511 3984 
Q 2250 4219 1831 4219 
Q 1534 4219 1204 4116 
Q 875 4013 500 3803 
L 500 4441 
Q 881 4594 1212 4672 
Q 1544 4750 1819 4750 
Q 2544 4750 2975 4387 
Q 3406 4025 3406 3419 
Q 3406 3131 3298 2873 
Q 3191 2616 2906 2266 
Q 2828 2175 2409 1742 
Q 1991 1309 1228 531 
z
" id="DejaVuSans-32" transform="scale(0.015625)"/>
      <path d="M 794 531 
L 1825 531 
L 1825 4091 
L 703 3866 
L 703 4441 
L 1819 4666 
L 2450 4666 
L 2450 531 
L 3481 531 
L 3481 0 
L 794 0 
L 794 531 
z
" id="DejaVuSans-31" transform="scale(0.015625)"/>
      <path d="M 703 97 
L 703 672 
Q 941 559 1184 500 
Q 1428 441 1663 441 
Q 2288 441 2617 861 
Q 2947 1281 2994 2138 
Q 2813 1869 2534 1725 
Q 2256 1581 1919 1581 
Q 1219 1581 811 2004 
Q 403 2428 403 3163 
Q 403 3881 828 4315 
Q 1253 4750 1959 4750 
Q 2769 4750 3195 4129 
Q 3622 3509 3622 2328 
Q 3622 1225 3098 567 
Q 2575 -91 1691 -91 
Q 1453 -91 1209 -44 
Q 966 3 703 97 
z
M 1959 2075 
Q 2384 2075 2632 2365 
Q 2881 2656 2881 3163 
Q 2881 3666 2632 3958 
Q 2384 4250 1959 4250 
Q 1534 4250 1286 3958 
Q 1038 3666 1038 3163 
Q 1038 2656 1286 2365 
Q 1534 2075 1959 2075 
z
" id="DejaVuSans-39" transform="scale(0.015625)"/>
     </defs>
     <use xlink:href="#DejaVuSans-32"/>
     <use x="63.623047" xlink:href="#DejaVuSans-30"/>
     <use x="127.246094" xlink:href="#DejaVuSans-31"/>
     <use x="190.869141" xlink:href="#DejaVuSans-39"/>
    </g>
   </g>
  </g>
 </g>
 <defs>
  <clipPath id="p11274abbea">
   <rect height="307.4" width="311.088437" x="44.696563" y="10.8"/>
  </clipPath>
 </defs>
</svg>
